<svg
  xmlns="http://www.w3.org/2000/svg"
  xmlns:xlink="http://www.w3.org/1999/xlink"
  viewBox="0 0 100 100"

  stroke="#fff"
  stroke-width="3.5"
  fill="none"
  stroke-linecap="round"
>

  <g
    transform-origin="50 50"
  >
    <path
      d="
      M 23 44
      v -15
      a 27 27 0 0 1 54 0
      a 3 3 0 0 1 -3 3
      h -4
      a 3 3 0 0 1 -3 -3
      a 17 17 0 0 0 -34 0
      v 15
      h 45
      a 5 5 0 0 1 5 5
      v 16
      a 33 33 0 0 1 -66 0
      v -16
      a 5 5 0 0 1 5 -5
      h 10

      m 22 28
      l 2 7
      a 1 1 0 0 1 -1 1
      h -10
      a 1 1 0 0 1 -1 -1
      l 2 -7
      a 2 2 0 0 0 0 -2
      a 6 6 0 1 1 8 0
      a 2 2 0 0 0 0 2
      "
    />
  </g>
</svg>