<svg
  xmlns="http://www.w3.org/2000/svg"
  xmlns:xlink="http://www.w3.org/1999/xlink"
  viewBox="0 0 100 100"

  fill="#fff"
>

  <g
    transform-origin="50 50"
  >
    <path
      d="
        M 0 50
        l 45 -36
        a 10 10 0 0 1 10 0
        l 17.5 14
        v -15
        a 2 2 0 0 1 2 -2
        h 6
        a 2 2 0 0 1 2 2
        v 23
        l 17.5 14
        l -6 8
        a 2 2 0 0 1 -2 0
        l -39 -31
        a 5 5 0 0 0 -6 0
        l -39 31
        a 2 2 0 0 1 -2 0

        M 50 30
        l 35 28
        v 30
        a 2 2 0 0 1 -2 2
        h -23
        a 2 2 0 0 1 -2 -2
        v -20
        a 2 2 0 0 0 -2 -2
        h -12
        a 2 2 0 0 0 -2 2
        v 20
        a 2 2 0 0 1 -2 2
        h -23
        a 2 2 0 0 1 -2 -2
        v -30
      "
    />
  </g>
</svg>