<svg
  xmlns="http://www.w3.org/2000/svg"
  xmlns:xlink="http://www.w3.org/1999/xlink"
  viewBox="0 0 100 100"

  fill="#fff"
>

  
  <g
    transform-origin="50 50"
  >
    <path
      d="
      M 35 0
      h -25
      a 10 10 0 0 0 -10 10
      v 80
      a 10 10 0 0 0 10 10
      h 80
      a 10 10 0 0 0 10 -10
      v -25
      h -9
      v 24
      a 5 5 0 0 1 -1 1
      h -79
      a 5 5 0 0 1 -1 -1
      v -78
      a 5 5 0 0 1 1 -1
      h 24
      z
      "
    />
    <path
      d="
      M 99 1
      l -7 49
      l -12 -12
      a 95 55 0 0 0 -30 35
      a 45 45 0 0 1 12 -53
      l -12 -12
      z
      "
    />
  </g>
</svg>