<svg
  xmlns="http://www.w3.org/2000/svg"
  xmlns:xlink="http://www.w3.org/1999/xlink"
  viewBox="0 0 100 100"

  fill="#fff"
>

  <g
    transform-origin="50 50"
  >
    <path
      d="
      M 
      10 49
      l 40 -30
      l 40 30
      l -6 4
      l -32 -24
      a 10 10 0 0 0 -15 5
      a 30 30 0 0 1 -21 19
      l -6 -4

      m -10 0
      v 12
      l 50 38
      l 50 -38
      v -12
      l -50 38
      l -50 -38

      m 38 0
      l 7 -7
      a 3 3 0 0 1 5 0
      l 3 3
      l 30 -30
      a 6 6 0 0 1 0 -9
      l 5 -5
      l 11 11
      l -5 5
      a 6 6 0 0 1 -9 0
      l -30 30
      l 3 3
      a 3 3 0 0 1 0 5
      l -9 9
      a 16 16 0 0 1 -9 -9
      a 16 16 0 0 0 -4 -4

      m 51.5 -46.5
      l -3.5 3.5
      a 4 4 0 0 0 0 5
      l 3 3
      a 4 4 0 0 0 5 0
      l 3.5 -3.5
      "
    />
  </g>
</svg>