<svg
  xmlns="http://www.w3.org/2000/svg"
  xmlns:xlink="http://www.w3.org/1999/xlink"
  viewBox="0 0 100 100"

  stroke="#fff"
  stroke-width="3.5"
  fill="none"
  text-anchor="middle"
  stroke-linecap="round"
>

  <g
    transform-origin="50 50"
  >

    <line
      x1="8"
      x2="17"
      y1="47"
      y2="68"
    />
    <circle
      cx="6"
      cy="42"
      r="4"
    />
    <line
      x1="9"
      x2="25"
      y1="39"
      y2="17"
    />
    <path
      d="
      M 31 20
      l -5 -5
      a 6 6 0 0 1 11 -11
      l 6 6
      a 21 21 0 0 1 21 4
      a 2 2 0 0 1 0 3
      l -25 25
      a 2 2 0 0 1 -3 0
      a 21 21 0 0 1 -4 -21
      l 11 -11

      m 16 13
      a 11 11 0 0 1 -14 14
      "
    />
    <line
      x1="68"
      x2="76"
      y1="26"
      y2="26"
    />
    <line
      x1="65"
      x2="72"
      y1="36"
      y2="40"
    />
    <line
      x1="58"
      x2="62"
      y1="42.5"
      y2="49"
    />
    <line
      x1="48"
      x2="48"
      y1="45"
      y2="53"
    />
    <path
      d="
      M 14 84
      v -10
      a 4 4 0 0 1 8 0
      v 10

      m -20 10
      h 40
      l 4 4
      h 8
      l 4 -4
      h 40

      m -4 0
      l -3 -8
      a 40 40 0 0 1 -16 -1
      l -12 -2
      a 10 10 0 0 0 -13 8
      a 10 10 0 0 0 -13 -8
      l -12 2
      a 40 40 0 0 1 -16 1
      l -3 8
      "
    />
    <path
      stroke-width="1.5"
      d="
       M 55.5 64
       a 10 10 0 1 0 3 3
       m 28 6
       a 10 10 0 1 0 0 0.1
       m 0 -4
       h 2
       m -50 0
       h 2
       m 19 0
       a 10 10 0 0 1 7 -0
       "
    />
  </g>


</svg>