<svg
  xmlns="http://www.w3.org/2000/svg"
  xmlns:xlink="http://www.w3.org/1999/xlink"
  viewBox="0 0 100 100"

  fill="#fff"
>

  <g
    transform-origin="50 50"
  >
    <path
      id="quarter"
      d="
        M 3 34
        a 23 23 0 0 1 31 -31
        a 2 2 0 0 1 -2 2
        a 21 21 0 0 0 -27 27
        a 2 2 0 0 1 -2 2

        m 4 -1
        a 45 45 0 0 1 26 -26
        a 2 2 0 0 1 2.5 1.5
        l 5.5 18
        a 2 2 0 0 1 -1 2
        a 23 23 0 0 0 -11.5 11.5
        a 2 2 0 0 1 -2 1
        l -18 -5.5
        a 2 2 0 0 1 -1.5 -2.5

        m 0 5
        l 18.5 6
        a 2 2 0 0 1 1 2
        a 23 23 0 0 0 0 8
        a 2 2 0 0 1 -1 2
        l -18.5 6
        a 2 2 0 0 1 -2 -1
        a 45 45 0 0 1 0 -22
        a 2 2 0 0 1 2 -1
      "
    />
    <use 
      href="#quarter"
      transform-origin="50 50"
      transform="rotate(90)"
    />
    <use 
      href="#quarter"
      transform-origin="50 50"
      transform="rotate(180)"
    />
    <use 
      href="#quarter"
      transform-origin="50 50"
      transform="rotate(-90)"
    />
  </g>
</svg>