<svg
  xmlns="http://www.w3.org/2000/svg"
  xmlns:xlink="http://www.w3.org/1999/xlink"
  viewBox="0 0 100 100"
  
  stroke="none"
  fill="#fff"
>
  <g
    transform-origin="50 50"
  >
    <path
      d="
      M 50 8
      h 46
      a 3 3 0 0 1 3 3
      v 63
      a 3 3 0 0 1 -3 3
      h -92
      a 3 3 0 0 1 -3 -3
      v -63
      a 3 3 0 0 1 3 -3
      h 46
      z
      m 0 4
      h -43
      a 3 3 0 0 0 -3 3
      v 48
      a 3 3 0 0 0 3 3
      h 86
      a 3 3 0 0 0 3 -3
      v -48
      a 3 3 0 0 0 -3 -3
      h 43
      z
      M 37 78
      h 26
      a 9 12 0 0 0 8 14
      h -42
      a 9 12 0 0 0 8 -14
      "
    />
  </g>
</svg>