<svg
  xmlns="http://www.w3.org/2000/svg"
  xmlns:xlink="http://www.w3.org/1999/xlink"
  viewBox="0 0 100 100"
  
  fill="#fff"
>
  <g
    transform-origin="50 50"
  >
    <path
      d="
      M 11 26
      v 53
      a 20 20 0 0 0 20 20
      a 100 100 0 0 0 20 0
      a 20 20 0 0 0 11 -4
      l 25 -25
      a 7 7 0 0 0 -13 -13
      l -5 5
      v -45
      a 9 9 0 0 0 -14 -7
      v -1
      a 8 8 0 0 0 -17 0
      v 1
      a 9 9 0 0 0 -14 7
      v 2
      a 9 9 0 0 0 -13 7
      v 2
      M 37 46
      h -8.5
      v -28.5
      a 4 4 0 0 1 9 0
      z
      M 15.5 50
      v -23
      a 4 4 0 0 1 9 0
      v 19
      a 10 10 0 0 0 -8.5 4
      z
      M 51 46
      h -9
      v -37
      a 4 4 0 0 1 9 0
      z
      M 55.5 46
      v -28.5
      a 4 4 0 0 1 9 0
      v 33
      a 14 14 0 0 0 -9 -4.5
      z

      M 40 78
      h 4
      a 13 10 0 0 1 20 -10
      a 3 3 0 0 0 5 0
      l 8 -8
      a 3 3 0 0 1 7 7
      l -24 24
      a 13 13 0 0 1 -11 5
      a 100 100 0 0 1 -18 0
      a 18 18 0 0 1 -15.5 -15.5
      v -20
      a 10 10 0 0 1 10 -10
      h 29
      a 10 10 0 0 1 10 10
      v 3.5
      a 17 14 0 0 0 -25 13
      "
    />
  </g>
</svg>